<?xml version="1.0"?>
<svg xmlns="http://www.w3.org/2000/svg" xmlns:xlink="http://www.w3.org/1999/xlink" xmlns:svgjs="http://svgjs.com/svgjs" version="1.1" width="512" height="512" x="0" y="0" viewBox="0 0 512 512" style="enable-background:new 0 0 512 512" xml:space="preserve"><g>
<g xmlns="http://www.w3.org/2000/svg">
	<g>
		<path d="M450.039,179.706c5.153-11.366,7.834-23.732,7.834-36.402c0-48.682-39.606-88.287-88.287-88.287    c-14.691,0-28.948,3.595-41.727,10.465c-16.616-17.468-39.43-27.326-63.869-27.326c-31.854,0-61.029,17.174-76.64,44.436    c-7.11-1.813-14.43-2.729-21.858-2.729c-48.682,0-88.287,39.606-88.287,88.287c0,9.015,1.341,17.84,3.997,26.33    c-19.3,16.687-30.619,41.14-30.619,66.844c0,46.495,36.128,84.712,81.785,88.051c-0.099,1.706-0.149,3.416-0.149,5.123    c0,48.682,39.606,88.287,88.287,88.287c28.935,0,55.911-14.366,72.27-37.587c16.438,16.521,38.929,26.052,62.611,26.052    c46.29,0,84.372-35.807,88.003-81.18C483.064,341.049,512,305.478,512,263.988C512,225.048,486.196,191.035,450.039,179.706z     M432.195,331.349c-5.183,0.645-9.043,5.103-8.938,10.326c0.009,0.428,0.017,0.857,0.017,1.287    c0,37.434-30.455,67.889-67.889,67.889c-22.195,0-43.035-10.893-55.746-29.138c-2.084-2.992-5.62-4.642-9.24-4.332    c-3.632,0.311-6.822,2.538-8.367,5.84c-11.129,23.793-35.281,39.166-61.528,39.166c-37.434,0-67.889-30.455-67.889-67.889    c0-4.451,0.438-8.915,1.299-13.271c0.615-3.106-0.248-6.32-2.334-8.702c-1.943-2.217-4.743-3.478-7.671-3.478    c-0.216,0-0.432,0.007-0.645,0.021c-1.543,0.098-2.98,0.146-4.396,0.146c-37.434,0-67.889-30.455-67.889-67.889    c0-21.771,10.565-42.38,28.263-55.127c3.835-2.763,5.27-7.798,3.467-12.168c-3.39-8.213-5.11-16.92-5.11-25.879    c0-37.434,30.455-67.889,67.889-67.889c8.09,0,16.005,1.409,23.522,4.186c5.051,1.866,10.683-0.516,12.861-5.44    c10.873-24.574,35.255-40.452,62.113-40.452c21.153,0,40.727,9.608,53.705,26.36c3.297,4.259,9.338,5.218,13.794,2.191    c11.257-7.648,24.43-11.69,38.097-11.69c37.434,0,67.889,30.455,67.889,67.889c0,13.484-3.946,26.513-11.409,37.676    c-1.952,2.92-2.264,6.639-0.826,9.844c1.437,3.205,4.423,5.443,7.902,5.927c33.328,4.625,58.461,33.53,58.461,67.235    C491.602,298.175,466.062,327.135,432.195,331.349z" fill="#ffffff" data-original="#000000" style=""/>
	</g>
</g>
<g xmlns="http://www.w3.org/2000/svg">
	<g>
		<path d="M113.572,398.971c0-21.339-17.361-38.699-38.7-38.699c-10.719,0-20.679,4.321-27.89,11.852    c-2.702-0.593-5.47-0.89-8.284-0.89C17.36,371.233,0,388.594,0,409.933c0,19.385,14.328,35.487,32.951,38.273    c5.38,15.091,19.766,25.638,36.442,25.638c21.338,0,38.699-17.36,38.699-38.7c0-4.452-0.764-8.844-2.241-12.991    C110.819,415.513,113.572,407.389,113.572,398.971z M86.984,412.685c-3.703,3.274-4.525,8.733-1.951,12.952    c1.74,2.854,2.66,6.141,2.66,9.509c0,10.091-8.209,18.3-18.3,18.3c-9.336,0-17.153-6.983-18.182-16.245    c-0.579-5.203-4.982-9.073-10.127-9.073c-0.281,0-0.565,0.011-0.851,0.036c-0.58,0.048-1.083,0.071-1.533,0.071    c-10.091,0-18.3-8.209-18.3-18.3c0-10.091,8.209-18.301,18.3-18.301c2.659,0,5.228,0.562,7.634,1.67    c4.685,2.157,10.24,0.476,12.947-3.912c3.367-5.459,9.196-8.718,15.593-8.718c10.091,0,18.301,8.209,18.301,18.3    C93.175,404.207,90.918,409.206,86.984,412.685z" fill="#ffffff" data-original="#000000" style=""/>
	</g>
</g>
<g xmlns="http://www.w3.org/2000/svg">
	<g>
		<g>
			<path d="M379.432,366.842c-6.911,6.734-16.03,10.444-25.682,10.444c-6.406,0-12.71-1.669-18.229-4.825     c-4.893-2.798-11.122-1.098-13.918,3.79c-2.797,4.89-1.099,11.121,3.79,13.918c8.598,4.918,18.403,7.517,28.357,7.517     c15.001,0,29.178-5.765,39.919-16.236c4.034-3.932,4.116-10.389,0.186-14.423C389.923,362.994,383.465,362.911,379.432,366.842z" fill="#ffffff" data-original="#000000" style=""/>
			<path d="M401.581,335.618c-5.609-0.626-10.642,3.411-11.264,9.009c-0.089,0.795-0.205,1.6-0.347,2.393     c-0.991,5.544,2.701,10.843,8.246,11.834c0.607,0.108,1.211,0.16,1.806,0.16c4.847,0,9.146-3.468,10.028-8.406     c0.22-1.233,0.402-2.487,0.54-3.726C411.213,341.283,407.18,336.24,401.581,335.618z" fill="#ffffff" data-original="#000000" style=""/>
		</g>
	</g>
</g>
<g xmlns="http://www.w3.org/2000/svg">
	<g>
		<path d="M213.456,258.477c-4.834,0-8.335,1.5-8.668,5.835c-0.666,7.334-2.166,18.836-19.169,18.836    c-13.168,0-20.336-6.834-20.336-21.503v-48.507c0-14.669,7.168-21.503,20.003-21.503c17.169,0,19.169,12.001,19.503,17.836    c0.166,4,3.5,5.834,8.835,5.834c6.001,0,8.835-1.668,8.835-9.168c0-17.67-15.002-30.171-37.839-30.171    c-20.17,0-37.006,10.168-37.006,37.172v48.507c0,27.003,16.67,37.172,36.84,37.172c22.837,0,38.006-12.836,38.006-31.172    C222.458,260.311,219.624,258.477,213.456,258.477z" fill="#ffffff" data-original="#000000" style=""/>
	</g>
</g>
<g xmlns="http://www.w3.org/2000/svg">
	<g>
		<path d="M275.131,175.965c-21.169,0-37.339,10.168-37.339,37.172v48.507c0,27.004,16.17,37.172,37.339,37.172    c21.002,0,37.506-10.168,37.506-37.172v-48.507C312.636,186.133,296.134,175.965,275.131,175.965z M294.967,261.645    c0,14.669-7.501,21.503-19.835,21.503c-12.502,0-19.67-6.834-19.67-21.503v-48.507c0-14.669,7.168-21.503,19.67-21.503    c12.335,0,19.835,6.834,19.835,21.503V261.645z" fill="#ffffff" data-original="#000000" style=""/>
	</g>
</g>
<g xmlns="http://www.w3.org/2000/svg">
	<g>
		<path d="M394.486,282.148h-49.008v-6.334c0-19.17,54.008-30.838,54.008-66.677c0-20.004-16.336-33.172-35.673-33.172    c-18.169,0-34.171,11.668-34.171,29.505c0,7.502,3.334,9.835,8.001,9.835c5.834,0,9.334-3.334,9.334-6.668    c0-11.334,7.501-16.502,16.836-16.502c12.669,0,18.003,9.335,18.003,17.503c0,25.67-54.508,39.172-54.508,66.177v16.17    c0,3.5,4.5,5.834,7.835,5.834h59.343c3.001,0,5.834-3.835,5.834-8.001C400.32,285.65,397.485,282.148,394.486,282.148z" fill="#ffffff" data-original="#000000" style=""/>
	</g>
</g>
<g xmlns="http://www.w3.org/2000/svg">
</g>
<g xmlns="http://www.w3.org/2000/svg">
</g>
<g xmlns="http://www.w3.org/2000/svg">
</g>
<g xmlns="http://www.w3.org/2000/svg">
</g>
<g xmlns="http://www.w3.org/2000/svg">
</g>
<g xmlns="http://www.w3.org/2000/svg">
</g>
<g xmlns="http://www.w3.org/2000/svg">
</g>
<g xmlns="http://www.w3.org/2000/svg">
</g>
<g xmlns="http://www.w3.org/2000/svg">
</g>
<g xmlns="http://www.w3.org/2000/svg">
</g>
<g xmlns="http://www.w3.org/2000/svg">
</g>
<g xmlns="http://www.w3.org/2000/svg">
</g>
<g xmlns="http://www.w3.org/2000/svg">
</g>
<g xmlns="http://www.w3.org/2000/svg">
</g>
<g xmlns="http://www.w3.org/2000/svg">
</g>
</g></svg>
