<?xml version="1.0"?>
<svg xmlns="http://www.w3.org/2000/svg" xmlns:xlink="http://www.w3.org/1999/xlink" xmlns:svgjs="http://svgjs.com/svgjs" version="1.1" width="512" height="512" x="0" y="0" viewBox="0 0 88 88" style="enable-background:new 0 0 512 512" xml:space="preserve" class=""><g><g xmlns="http://www.w3.org/2000/svg" id="Kitchen"><path d="M27,31v4a1,1,0,0,0,1,1H60a1,1,0,0,0,1-1V31a1.1068,1.1068,0,0,0-.3359-.7471L52,22.5508V2a1,1,0,0,0-1-1H37a1,1,0,0,0-1,1V22.5508l-8.6641,7.7021A1.024,1.024,0,0,0,27,31Zm10.6641-7.2529A.9988.9988,0,0,0,38,23V3H50V23a.9988.9988,0,0,0,.3359.7471L57.37,30H42a1,1,0,0,0,0,2H59v2H29V32h8a1,1,0,0,0,0-2H30.63Z" fill="#ffffff" data-original="#000000" style=""/><path d="M86,1H58a1,1,0,0,0-1,1V24a1,1,0,0,0,1,1H86a1,1,0,0,0,1-1V2A1,1,0,0,0,86,1ZM59,3H71V23H59ZM85,23H73V3H85Z" fill="#ffffff" data-original="#000000" style=""/><path d="M69,11a1,1,0,0,0-1,1v2a1,1,0,0,0,2,0V12A1,1,0,0,0,69,11Z" fill="#ffffff" data-original="#000000" style=""/><path d="M75,15a1,1,0,0,0,1-1V12a1,1,0,0,0-2,0v2A1,1,0,0,0,75,15Z" fill="#ffffff" data-original="#000000" style=""/><path d="M2,25H30a1,1,0,0,0,1-1V2a1,1,0,0,0-1-1H2A1,1,0,0,0,1,2V24A1,1,0,0,0,2,25Zm27-2H17V3H29ZM3,3H15V23H3Z" fill="#ffffff" data-original="#000000" style=""/><path d="M13,11a1,1,0,0,0-1,1v2a1,1,0,0,0,2,0V12A1,1,0,0,0,13,11Z" fill="#ffffff" data-original="#000000" style=""/><path d="M19,15a1,1,0,0,0,1-1V12a1,1,0,0,0-2,0v2A1,1,0,0,0,19,15Z" fill="#ffffff" data-original="#000000" style=""/><path d="M86,53H84V44a3,3,0,0,0-6,0v2a1,1,0,0,0,2,0V44a1,1,0,0,1,2,0v9H58.8157A2.9635,2.9635,0,0,0,59,52V50h3a1,1,0,0,0,0-2H48a1,1,0,0,0-1,1v3a2.966,2.966,0,0,0,.1843,1h-6.74A3.9545,3.9545,0,0,0,41,51V49h1a1,1,0,0,0,0-2H41V46a1,1,0,0,0-1-1H30a1,1,0,0,0-1,1v1H28a1,1,0,0,0,0,2h1v2a3.9545,3.9545,0,0,0,.5562,2H17.46A5.9688,5.9688,0,0,0,19,49V46a1,1,0,0,0-1-1H14.4141l1.2929-1.293a1,1,0,0,0-1.414-1.414L11.5859,45H8a1,1,0,0,0-1,1v3a5.9688,5.9688,0,0,0,1.54,4H2a1,1,0,0,0-1,1V86a1,1,0,0,0,1,1H18a1,1,0,0,0,0-2H3V83H85v2H24a1,1,0,0,0,0,2H86a1,1,0,0,0,1-1V79a1,1,0,0,0-2,0v2H75V65H85V75a1,1,0,0,0,2,0V54A1,1,0,0,0,86,53ZM49,52V50h8v2a1.0006,1.0006,0,0,1-1,1H50A1.0006,1.0006,0,0,1,49,52ZM31,51V47h8v4a2.0027,2.0027,0,0,1-2,2H33A2.0027,2.0027,0,0,1,31,51ZM9,49V47h8v2a4,4,0,0,1-8,0ZM3,55H25V67H3ZM3,69H25V81H3ZM27,55H61V81H57V75a1,1,0,0,0-2,0v2H33V65H55v6a1,1,0,0,0,2,0V64a1,1,0,0,0-1-1H32a1,1,0,0,0-1,1V81H27Zm6,26V79H55v2Zm40,0H63V65H73ZM63,63V55H85v8Z" fill="#ffffff" data-original="#000000" style=""/><path d="M16,60H12a1,1,0,0,0,0,2h4a1,1,0,0,0,0-2Z" fill="#ffffff" data-original="#000000" style=""/><path d="M75,58H73a1,1,0,0,0,0,2h2a1,1,0,0,0,0-2Z" fill="#ffffff" data-original="#000000" style=""/><path d="M16,74H12a1,1,0,0,0,0,2h4a1,1,0,0,0,0-2Z" fill="#ffffff" data-original="#000000" style=""/><path d="M76,72v2a1,1,0,0,0,2,0V72a1,1,0,0,0-2,0Z" fill="#ffffff" data-original="#000000" style=""/><path d="M71,75a1,1,0,0,0,1-1V72a1,1,0,0,0-2,0v2A1,1,0,0,0,71,75Z" fill="#ffffff" data-original="#000000" style=""/><path d="M52,62a3,3,0,1,0-3-3A3.0033,3.0033,0,0,0,52,62Zm0-4a1,1,0,1,1-1,1A1.0006,1.0006,0,0,1,52,58Z" fill="#ffffff" data-original="#000000" style=""/><path d="M44,62a3,3,0,1,0-3-3A3.0033,3.0033,0,0,0,44,62Zm0-4a1,1,0,1,1-1,1A1.0006,1.0006,0,0,1,44,58Z" fill="#ffffff" data-original="#000000" style=""/><path d="M36,62a3,3,0,1,0-3-3A3.0033,3.0033,0,0,0,36,62Zm0-4a1,1,0,1,1-1,1A1.0006,1.0006,0,0,1,36,58Z" fill="#ffffff" data-original="#000000" style=""/><path d="M50,67H38a1,1,0,0,0,0,2H50a1,1,0,0,0,0-2Z" fill="#ffffff" data-original="#000000" style=""/></g></g></svg>
