<?xml version="1.0"?>
<svg xmlns="http://www.w3.org/2000/svg" xmlns:xlink="http://www.w3.org/1999/xlink" xmlns:svgjs="http://svgjs.com/svgjs" version="1.1" width="512" height="512" x="0" y="0" viewBox="0 0 49.652 49.652" style="enable-background:new 0 0 512 512" xml:space="preserve" class=""><g><g xmlns="http://www.w3.org/2000/svg"><g><path d="m49.652 24.826c0-13.689-11.137-24.826-24.826-24.826s-24.826 11.137-24.826 24.826c0 13.688 11.137 24.826 24.826 24.826 13.69 0 24.826-11.136 24.826-24.826zm-22.388-.038c0 1.302-1.055 2.355-2.355 2.355-1.301 0-2.356-1.055-2.356-2.355v-12.253c0-1.301 1.055-2.356 2.356-2.356s2.355 1.054 2.355 2.356zm13.593.079c0 8.839-7.191 16.029-16.031 16.029s-16.031-7.19-16.031-16.029c0-4.285 1.669-8.313 4.701-11.34.46-.46 1.062-.689 1.665-.689s1.207.23 1.667.691c.92.921.919 2.412-.002 3.332-2.139 2.138-3.318 4.981-3.318 8.006 0 6.24 5.077 11.315 11.318 11.315s11.317-5.075 11.317-11.315c0-3.023-1.176-5.865-3.313-8.003-.92-.921-.919-2.412.001-3.333.921-.921 2.412-.919 3.333.001 3.025 3.028 4.693 7.054 4.693 11.335z" fill="#ffffff" data-original="#000000" style="" class=""/></g></g></g></svg>
