<?xml version="1.0"?>
<svg xmlns="http://www.w3.org/2000/svg" xmlns:xlink="http://www.w3.org/1999/xlink" xmlns:svgjs="http://svgjs.com/svgjs" version="1.1" width="512" height="512" x="0" y="0" viewBox="0 0 512 512" style="enable-background:new 0 0 512 512" xml:space="preserve" class=""><g><g xmlns="http://www.w3.org/2000/svg"><g><path d="m489.5 467h-35.265c-.227-14.009-9.94-25.752-22.987-29.064v-121.423c0-.284-.019-.563-.049-.838l39.591-39.591c2.929-2.93 2.929-7.678 0-10.607-2.928-2.927-7.677-2.929-10.606 0l-125.187 125.186c-1.417 1.416-3.3 2.196-5.303 2.196s-3.886-.78-5.303-2.197c-1.417-1.416-2.197-3.3-2.197-5.303s.78-3.887 2.197-5.303l159.806-159.806c2.925-2.924 7.683-2.923 10.606-.001 2.924 2.925 2.924 7.684 0 10.607l-11.999 11.999c-2.929 2.93-2.929 7.678 0 10.607 2.929 2.928 7.678 2.928 10.606 0l12-12c8.772-8.772 8.772-23.047 0-31.82-8.772-8.771-23.047-8.771-31.819 0l-159.807 159.807c-4.25 4.25-6.59 9.9-6.59 15.91s2.341 11.66 6.59 15.909c4.25 4.25 9.9 6.591 15.91 6.591s11.66-2.341 15.91-6.59l70.645-70.644v107.31c-13.047 3.312-22.76 15.055-22.987 29.064h-92.623c-.227-14.009-9.94-25.753-22.987-29.064v-121.422c0-.283-.019-.562-.049-.837l74.212-74.211v-.001c8.772-8.772 8.772-23.047 0-31.82-8.773-8.771-23.047-8.771-31.82 0l-159.808 159.805c-4.25 4.25-6.59 9.9-6.59 15.91s2.341 11.66 6.59 15.909c4.25 4.25 9.9 6.591 15.91 6.591s11.661-2.341 15.91-6.59l70.644-70.644v107.31c-13.047 3.312-22.76 15.055-22.987 29.064h-92.622c-.227-14.009-9.94-25.753-22.987-29.064v-121.422c0-.284-.019-.563-.05-.838l74.212-74.212c8.772-8.772 8.772-23.047 0-31.82-8.772-8.771-23.047-8.771-31.819 0l-119.481 119.479c-2.929 2.93-2.929 7.678 0 10.607 2.929 2.928 7.678 2.928 10.606 0l119.48-119.479c2.925-2.924 7.683-2.923 10.606-.001 2.924 2.925 2.924 7.684 0 10.607l-159.806 159.807c-1.417 1.416-3.3 2.196-5.303 2.196s-3.886-.78-5.303-2.197c-1.417-1.416-2.197-3.3-2.197-5.303s.78-3.887 2.197-5.303l17.705-17.705c2.929-2.93 2.929-7.678 0-10.607-2.929-2.928-7.678-2.928-10.606 0l-17.706 17.705c-4.25 4.25-6.59 9.9-6.59 15.91s2.341 11.66 6.59 15.909c4.25 4.25 9.9 6.591 15.91 6.591s11.66-2.341 15.91-6.59l70.645-70.645v107.311c-13.047 3.312-22.76 15.055-22.987 29.064h-63.568c-12.407.001-22.5 10.095-22.5 22.501s10.093 22.5 22.5 22.5h467c12.407 0 22.5-10.094 22.5-22.5s-10.093-22.5-22.5-22.5zm-308.1-76.337c-1.417 1.416-3.3 2.196-5.303 2.196s-3.886-.78-5.303-2.197c-1.417-1.416-2.197-3.3-2.197-5.303s.78-3.887 2.197-5.303l159.806-159.806c1.462-1.463 3.383-2.193 5.304-2.193 1.92 0 3.841.731 5.303 2.192 2.924 2.925 2.924 7.684 0 10.607zm242.348 61.337c8.379 0 15.227 6.684 15.492 15h-30.984c.265-8.316 7.113-15 15.492-15zm-153.597 0c8.379 0 15.227 6.684 15.492 15h-30.984c.265-8.316 7.112-15 15.492-15zm-153.597 0c8.379 0 15.227 6.684 15.492 15h-30.984c.265-8.316 7.113-15 15.492-15zm372.946 45h-467c-4.136 0-7.5-3.364-7.5-7.5s3.364-7.5 7.5-7.5h467c4.136 0 7.5 3.364 7.5 7.5s-3.364 7.5-7.5 7.5z" fill="#ffffff" data-original="#000000" style="" class=""/><path d="m107.5 161c29.5 0 53.5-24 53.5-53.5s-24-53.5-53.5-53.5c-7.829 0-15.377 1.655-22.435 4.92-3.76 1.738-5.397 6.195-3.659 9.955s6.198 5.397 9.956 3.658c5.07-2.345 10.499-3.533 16.138-3.533 21.229 0 38.5 17.271 38.5 38.5s-17.271 38.5-38.5 38.5-38.5-17.271-38.5-38.5c0-5.774 1.245-11.323 3.699-16.493 1.777-3.741.184-8.215-3.558-9.992-3.741-1.775-8.215-.183-9.992 3.559-3.417 7.195-5.149 14.908-5.149 22.926 0 29.5 24 53.5 53.5 53.5z" fill="#ffffff" data-original="#000000" style="" class=""/><path d="m107.5 27c4.142 0 7.5-3.357 7.5-7.5v-12c0-4.143-3.358-7.5-7.5-7.5s-7.5 3.357-7.5 7.5v12c0 4.143 3.358 7.5 7.5 7.5z" fill="#ffffff" data-original="#000000" style="" class=""/><path d="m100 195.5v12c0 4.143 3.358 7.5 7.5 7.5s7.5-3.357 7.5-7.5v-12c0-4.143-3.358-7.5-7.5-7.5s-7.5 3.357-7.5 7.5z" fill="#ffffff" data-original="#000000" style="" class=""/><path d="m169.726 52.774c1.919 0 3.839-.732 5.303-2.197l8.485-8.485c2.929-2.929 2.929-7.678 0-10.606s-7.678-2.929-10.606.001l-8.485 8.485c-2.929 2.929-2.929 7.678 0 10.606 1.464 1.464 3.383 2.196 5.303 2.196z" fill="#ffffff" data-original="#000000" style="" class=""/><path d="m36.79 185.711c1.919 0 3.839-.732 5.303-2.197l8.485-8.485c2.929-2.929 2.929-7.678 0-10.606s-7.678-2.929-10.606.001l-8.485 8.485c-2.929 2.929-2.929 7.678 0 10.606 1.464 1.464 3.383 2.196 5.303 2.196z" fill="#ffffff" data-original="#000000" style="" class=""/><path d="m195.5 115h12c4.142 0 7.5-3.357 7.5-7.5s-3.358-7.5-7.5-7.5h-12c-4.142 0-7.5 3.357-7.5 7.5s3.358 7.5 7.5 7.5z" fill="#ffffff" data-original="#000000" style="" class=""/><path d="m7.5 115h12c4.142 0 7.5-3.357 7.5-7.5s-3.358-7.5-7.5-7.5h-12c-4.142 0-7.5 3.357-7.5 7.5s3.358 7.5 7.5 7.5z" fill="#ffffff" data-original="#000000" style="" class=""/><path d="m172.907 183.514c1.464 1.465 3.384 2.197 5.303 2.197s3.839-.732 5.303-2.196c2.929-2.929 2.929-7.678 0-10.606l-8.485-8.485c-2.928-2.929-7.677-2.93-10.606-.001s-2.929 7.678 0 10.606z" fill="#ffffff" data-original="#000000" style="" class=""/><path d="m39.971 50.577c1.464 1.465 3.384 2.197 5.303 2.197s3.839-.732 5.303-2.196c2.929-2.929 2.929-7.678 0-10.606l-8.485-8.485c-2.929-2.93-7.678-2.929-10.606-.001-2.929 2.929-2.929 7.678 0 10.606z" fill="#ffffff" data-original="#000000" style="" class=""/></g></g></g></svg>
