<?xml version="1.0"?>
<svg xmlns="http://www.w3.org/2000/svg" xmlns:xlink="http://www.w3.org/1999/xlink" xmlns:svgjs="http://svgjs.com/svgjs" version="1.1" width="512" height="512" x="0" y="0" viewBox="0 0 480 480" style="enable-background:new 0 0 512 512" xml:space="preserve" class=""><g><path xmlns="http://www.w3.org/2000/svg" d="m408 0h-336c-39.746094.0429688-71.9570312 32.253906-72 72v368c.0273438 22.082031 17.917969 39.972656 40 40h400c22.082031-.027344 39.972656-17.917969 40-40v-368c-.042969-39.746094-32.253906-71.9570312-72-72zm56 440c0 13.253906-10.746094 24-24 24h-400c-13.253906 0-24-10.746094-24-24v-368c.039062-30.910156 25.089844-55.960938 56-56h336c30.910156.039062 55.960938 25.089844 56 56zm0 0" fill="#ffffff" data-original="#000000" style=""/><path xmlns="http://www.w3.org/2000/svg" d="m443.625 80.863281c-127.933594-65.152343-279.316406-65.152343-407.25 0-2.683594 1.367188-4.375 4.125-4.375 7.136719v224c0 4.417969 3.582031 8 8 8h400c4.417969 0 8-3.582031 8-8v-224c0-3.011719-1.691406-5.769531-4.375-7.136719zm-11.625 223.136719h-384v-211.0625c120.988281-59.917969 263.011719-59.917969 384 0zm0 0" fill="#ffffff" data-original="#000000" style=""/><path xmlns="http://www.w3.org/2000/svg" d="m68.566406 104.800781c-2.78125 1.320313-4.554687 4.121094-4.566406 7.199219v168c0 4.417969 3.582031 8 8 8h336c4.417969 0 8-3.582031 8-8v-168c-.011719-3.078125-1.785156-5.878906-4.566406-7.199219-107.824219-54.367187-235.042969-54.367187-342.867188 0zm124.097656 167.199219c3.886719-23.113281 23.898438-40.042969 47.335938-40.042969s43.449219 16.929688 47.335938 40.042969zm207.335938 0h-96.550781c-1.429688-11.378906-5.902344-22.15625-12.953125-31.199219l33.792968-33.792969 5.65625 5.664063c2.285157 2.289063 5.726563 2.972656 8.714844 1.734375 2.988282-1.238281 4.9375-4.15625 4.941406-7.390625v-22.617187c0-4.417969-3.582031-8-8-8h-22.632812c-3.234375.003906-6.152344 1.953124-7.390625 4.941406-1.238281 2.988281-.554687 6.429687 1.734375 8.714844l5.664062 5.65625-33.777343 33.792968c-18.125-14.148437-42.460938-17.453125-63.703125-8.660156-21.246094 8.796875-36.121094 28.335938-38.945313 51.15625h-96.550781v-154.910156c100.933594-49.453125 219.066406-49.453125 320 0zm0 0" fill="#ffffff" data-original="#000000" style=""/><path xmlns="http://www.w3.org/2000/svg" d="m295.199219 347.574219c1.976562-3.953125.371093-8.757813-3.582031-10.734375-3.957032-1.976563-8.761719-.371094-10.738282 3.585937l-40.878906 81.6875-40.800781-81.6875c-1.972657-3.957031-6.78125-5.5625-10.734375-3.585937-3.957032 1.976562-5.558594 6.78125-3.585938 10.734375l48 96c.246094.433593.53125.839843.847656 1.21875.105469.171875.222657.335937.34375.496093.625.695313 1.367188 1.273438 2.195313 1.710938.078125.039062.117187.121094.199219.160156.078125.039063.230468 0 .351562.078125.996094.476563 2.082032.734375 3.183594.761719 1.109375-.023438 2.199219-.277344 3.199219-.753906.121093-.046875.242187 0 .351562-.078125.113281-.078125.121094-.121094.203125-.160157.824219-.4375 1.566406-1.015624 2.191406-1.710937.132813-.152344.214844-.328125.34375-.488281.316407-.382813.601563-.792969.847657-1.222656zm0 0" fill="#ffffff" data-original="#000000" style=""/><path xmlns="http://www.w3.org/2000/svg" d="m360 416c-4.417969 0-8 3.582031-8 8s-3.582031 8-8 8-8-3.582031-8-8c0-13.253906-10.746094-24-24-24s-24 10.746094-24 24c0 4.417969 3.582031 8 8 8s8-3.582031 8-8 3.582031-8 8-8 8 3.582031 8 8c0 13.253906 10.746094 24 24 24s24-10.746094 24-24c0-4.417969-3.582031-8-8-8zm0 0" fill="#ffffff" data-original="#000000" style=""/><path xmlns="http://www.w3.org/2000/svg" d="m120 416h64c4.417969 0 8-3.582031 8-8s-3.582031-8-8-8h-64c-4.417969 0-8 3.582031-8 8s3.582031 8 8 8zm0 0" fill="#ffffff" data-original="#000000" style=""/><path xmlns="http://www.w3.org/2000/svg" d="m120.078125 432h-.078125c-4.433594.023438-8.011719 3.628906-8 8.058594.011719 4.433594 3.609375 8.019531 8.039062 8.019531 4.433594 0 8.03125-3.585937 8.039063-8.019531.011719-4.429688-3.566406-8.035156-8-8.058594zm0 0" fill="#ffffff" data-original="#000000" style=""/><path xmlns="http://www.w3.org/2000/svg" d="m152.078125 432h-.078125c-4.433594.023438-8.011719 3.628906-8 8.058594.011719 4.433594 3.609375 8.019531 8.039062 8.019531 4.433594 0 8.03125-3.585937 8.039063-8.019531.011719-4.429688-3.566406-8.035156-8-8.058594zm0 0" fill="#ffffff" data-original="#000000" style=""/><path xmlns="http://www.w3.org/2000/svg" d="m184.078125 432h-.078125c-4.433594.023438-8.011719 3.628906-8 8.058594.011719 4.433594 3.609375 8.019531 8.039062 8.019531 4.433594 0 8.03125-3.585937 8.039063-8.019531.011719-4.429688-3.566406-8.035156-8-8.058594zm0 0" fill="#ffffff" data-original="#000000" style=""/><path xmlns="http://www.w3.org/2000/svg" d="m408 336c-17.671875 0-32 14.328125-32 32s14.328125 32 32 32 32-14.328125 32-32-14.328125-32-32-32zm0 48c-8.835938 0-16-7.164062-16-16s7.164062-16 16-16 16 7.164062 16 16-7.164062 16-16 16zm0 0" fill="#ffffff" data-original="#000000" style=""/><path xmlns="http://www.w3.org/2000/svg" d="m64 336c-17.671875 0-32 14.328125-32 32s14.328125 32 32 32 32-14.328125 32-32-14.328125-32-32-32zm0 48c-8.835938 0-16-7.164062-16-16s7.164062-16 16-16 16 7.164062 16 16-7.164062 16-16 16zm0 0" fill="#ffffff" data-original="#000000" style=""/><path xmlns="http://www.w3.org/2000/svg" d="m232 104v17.054688l-11.558594-7.710938c-3.675781-2.453125-8.644531-1.460938-11.097656 2.214844-2.453125 3.675781-1.460938 8.644531 2.214844 11.097656l24 16c.105468.0625.21875.085938.3125.144531.257812.160157.527344.308594.800781.4375.175781.082031.351563.128907.527344.203125h.066406c.207031.070313.398437.167969.613281.230469.664063.195313 1.351563.304687 2.042969.328125h.15625c.6875-.015625 1.367187-.113281 2.027344-.296875.214843-.0625.40625-.160156.613281-.230469h.066406c.175782-.074218.351563-.121094.527344-.199218.273438-.132813.542969-.28125.800781-.441407.09375-.054687.207031-.078125.3125-.144531l24-16c3.675781-2.453125 4.667969-7.417969 2.214844-11.09375-2.453125-3.679688-7.421875-4.667969-11.097656-2.21875l-11.542969 7.679688v-17.054688c0-4.417969-3.582031-8-8-8s-8 3.582031-8 8zm0 0" fill="#ffffff" data-original="#000000" style=""/><path xmlns="http://www.w3.org/2000/svg" d="m354.34375 165.65625c3.125 3.121094 8.1875 3.121094 11.3125 0l16-16c3.03125-3.140625 2.988281-8.128906-.097656-11.214844-3.085938-3.085937-8.074219-3.128906-11.214844-.097656l-16 16c-3.121094 3.125-3.121094 8.1875 0 11.3125zm0 0" fill="#ffffff" data-original="#000000" style=""/><path xmlns="http://www.w3.org/2000/svg" d="m109.65625 138.34375c-3.140625-3.03125-8.128906-2.988281-11.214844.097656-3.085937 3.085938-3.128906 8.074219-.097656 11.214844l16 16c3.140625 3.03125 8.128906 2.988281 11.214844-.097656 3.085937-3.085938 3.128906-8.074219.097656-11.214844zm0 0" fill="#ffffff" data-original="#000000" style=""/><path xmlns="http://www.w3.org/2000/svg" d="m176 111.960938c0 4.4375-3.601562 8.039062-8.039062 8.039062-4.441407 0-8.039063-3.601562-8.039063-8.039062 0-4.441407 3.597656-8.039063 8.039063-8.039063 4.4375 0 8.039062 3.597656 8.039062 8.039063zm0 0" fill="#ffffff" data-original="#000000" style=""/><path xmlns="http://www.w3.org/2000/svg" d="m144 127.960938c0 4.4375-3.601562 8.039062-8.039062 8.039062-4.441407 0-8.039063-3.601562-8.039063-8.039062 0-4.441407 3.597656-8.039063 8.039063-8.039063 4.4375 0 8.039062 3.597656 8.039062 8.039063zm0 0" fill="#ffffff" data-original="#000000" style=""/><path xmlns="http://www.w3.org/2000/svg" d="m320 111.960938c0 4.4375-3.601562 8.039062-8.039062 8.039062-4.441407 0-8.039063-3.601562-8.039063-8.039062 0-4.441407 3.597656-8.039063 8.039063-8.039063 4.4375 0 8.039062 3.597656 8.039062 8.039063zm0 0" fill="#ffffff" data-original="#000000" style=""/><path xmlns="http://www.w3.org/2000/svg" d="m352 127.960938c0 4.4375-3.601562 8.039062-8.039062 8.039062-4.441407 0-8.039063-3.601562-8.039063-8.039062 0-4.441407 3.597656-8.039063 8.039063-8.039063 4.4375 0 8.039062 3.597656 8.039062 8.039063zm0 0" fill="#ffffff" data-original="#000000" style=""/></g></svg>
