<?xml version="1.0"?>
<svg xmlns="http://www.w3.org/2000/svg" xmlns:xlink="http://www.w3.org/1999/xlink" xmlns:svgjs="http://svgjs.com/svgjs" version="1.1" width="512" height="512" x="0" y="0" viewBox="0 0 512 512" style="enable-background:new 0 0 512 512" xml:space="preserve" class=""><g>
<g xmlns="http://www.w3.org/2000/svg">
	<g>
		<path id="path" d="M400.6,59.133h-81.4V15c0-8.284-6.716-15-15-15h-96.399c-8.284,0-15,6.716-15,15v44.133h-81.4c-8.284,0-15,6.716-15,15    V497c0,8.284,6.716,15,15,15H400.6c8.284,0,15-6.716,15-15V74.133C415.6,65.849,408.884,59.133,400.6,59.133z M222.801,30h66.399    v29.133h-66.399V30z M385.6,482h-259.2v-75.717h259.2V482z M385.6,376.283h-259.2v-75.717h259.2V376.283z M385.6,270.567h-259.2    V194.85h259.2V270.567z M385.6,164.85h-259.2V89.133h259.2V164.85z" fill="#ffffff" data-original="#000000" style=""/>
	</g>
</g>
<g xmlns="http://www.w3.org/2000/svg">
</g>
<g xmlns="http://www.w3.org/2000/svg">
</g>
<g xmlns="http://www.w3.org/2000/svg">
</g>
<g xmlns="http://www.w3.org/2000/svg">
</g>
<g xmlns="http://www.w3.org/2000/svg">
</g>
<g xmlns="http://www.w3.org/2000/svg">
</g>
<g xmlns="http://www.w3.org/2000/svg">
</g>
<g xmlns="http://www.w3.org/2000/svg">
</g>
<g xmlns="http://www.w3.org/2000/svg">
</g>
<g xmlns="http://www.w3.org/2000/svg">
</g>
<g xmlns="http://www.w3.org/2000/svg">
</g>
<g xmlns="http://www.w3.org/2000/svg">
</g>
<g xmlns="http://www.w3.org/2000/svg">
</g>
<g xmlns="http://www.w3.org/2000/svg">
</g>
<g xmlns="http://www.w3.org/2000/svg">
</g>
</g></svg>
