<?xml version="1.0"?>
<svg xmlns="http://www.w3.org/2000/svg" xmlns:xlink="http://www.w3.org/1999/xlink" xmlns:svgjs="http://svgjs.com/svgjs" version="1.1" width="512" height="512" x="0" y="0" viewBox="0 0 512.001 512.001" style="enable-background:new 0 0 512 512" xml:space="preserve" class=""><g>
<g xmlns="http://www.w3.org/2000/svg">
	<g>
		<g>
			<path d="M396.984,57.6c-4.471,0-8.093,3.622-8.093,8.093v80.383v42.198H205.563h-82.454V39.812     c0-13.027,10.598-23.627,23.627-23.627h218.528c13.028,0,23.627,10.598,23.627,23.627c0,4.47,3.622,8.093,8.093,8.093     c4.47,0,8.093-3.622,8.093-8.093C405.076,17.859,387.217,0,365.264,0H146.736c-21.953,0-39.812,17.859-39.812,39.812v156.556     v26.976v214.243c0,16.199,9.73,30.158,23.647,36.369v17.003c0,11.602,9.44,21.041,21.041,21.041h17.263     c11.602,0,21.041-9.439,21.041-21.041V477.4h10.663c4.47,0,8.093-3.622,8.093-8.093c0-4.47-3.622-8.093-8.093-8.093h-18.672     c-0.028,0-0.055-0.004-0.083-0.004h-35.252c-12.952-0.09-23.462-10.65-23.462-23.622V231.437h69.506     c11.602,0,21.041-9.439,21.041-21.041v-5.935h175.235v233.126c0,12.971-10.509,23.532-23.462,23.622h-35.253     c-0.028,0-0.055,0.003-0.083,0.004H227.196c-4.47,0-8.093,3.622-8.093,8.093c0,4.471,3.622,8.093,8.093,8.093h94.889v13.559     c0,11.602,9.44,21.041,21.041,21.041h17.263c11.602,0,21.041-9.439,21.041-21.041v-17.002     c13.918-6.211,23.647-20.171,23.647-36.369V196.368v-50.291V65.693C405.076,61.223,401.454,57.6,396.984,57.6z M146.756,477.399     h26.974v13.559c0,2.677-2.179,4.856-4.856,4.856h-17.263c-2.677,0-4.856-2.179-4.856-4.856V477.399z M197.471,210.395     c0,2.677-2.179,4.856-4.856,4.856h-69.506v-10.79h74.361V210.395z M365.243,490.959c0,2.678-2.177,4.856-4.856,4.856h-17.263     c-2.677,0-4.856-2.179-4.856-4.856v-13.559h26.974V490.959z" fill="#ffffff" data-original="#000000" style="" class=""/>
			<path d="M355.277,45.912v111.915c0,4.47,3.622,8.093,8.093,8.093c4.471,0,8.093-3.622,8.093-8.093V45.912     c0-4.47-3.622-8.093-8.093-8.093C358.9,37.819,355.277,41.442,355.277,45.912z" fill="#ffffff" data-original="#000000" style="" class=""/>
			<path d="M355.277,422.179c0,4.471,3.622,8.093,8.093,8.093c4.471,0,8.093-3.622,8.093-8.093v-5.434     c0-4.47-3.622-8.093-8.093-8.093c-4.47,0-8.093,3.622-8.093,8.093V422.179z" fill="#ffffff" data-original="#000000" style="" class=""/>
			<path d="M363.37,398.576c4.471,0,8.093-3.622,8.093-8.093v-156.1c0-4.471-3.622-8.093-8.093-8.093     c-4.47,0-8.093,3.622-8.093,8.093v156.1C355.277,394.953,358.9,398.576,363.37,398.576z" fill="#ffffff" data-original="#000000" style="" class=""/>
			<path d="M154.54,64.366c-4.47,0-8.093,3.622-8.093,8.093v66.609c0,4.47,3.622,8.093,8.093,8.093c4.471,0,8.093-3.622,8.093-8.093     V80.552h4.856c4.47,0,8.093-3.622,8.093-8.093c0-4.471-3.622-8.093-8.093-8.093H154.54z" fill="#ffffff" data-original="#000000" style="" class=""/>
		</g>
	</g>
</g>
<g xmlns="http://www.w3.org/2000/svg">
</g>
<g xmlns="http://www.w3.org/2000/svg">
</g>
<g xmlns="http://www.w3.org/2000/svg">
</g>
<g xmlns="http://www.w3.org/2000/svg">
</g>
<g xmlns="http://www.w3.org/2000/svg">
</g>
<g xmlns="http://www.w3.org/2000/svg">
</g>
<g xmlns="http://www.w3.org/2000/svg">
</g>
<g xmlns="http://www.w3.org/2000/svg">
</g>
<g xmlns="http://www.w3.org/2000/svg">
</g>
<g xmlns="http://www.w3.org/2000/svg">
</g>
<g xmlns="http://www.w3.org/2000/svg">
</g>
<g xmlns="http://www.w3.org/2000/svg">
</g>
<g xmlns="http://www.w3.org/2000/svg">
</g>
<g xmlns="http://www.w3.org/2000/svg">
</g>
<g xmlns="http://www.w3.org/2000/svg">
</g>
</g></svg>
