<?xml version="1.0"?>
<svg xmlns="http://www.w3.org/2000/svg" xmlns:xlink="http://www.w3.org/1999/xlink" xmlns:svgjs="http://svgjs.com/svgjs" version="1.1" width="512" height="512" x="0" y="0" viewBox="0 0 512.352 512.352" style="enable-background:new 0 0 512 512" xml:space="preserve" class=""><g>
<g xmlns="http://www.w3.org/2000/svg">
	<g>
		<path d="M372.357,11.716c-15.381-15.381-42.219-15.445-57.621,0l-109.44,109.44c-4.16,4.16-4.16,10.923,0,15.083    c4.16,4.16,10.923,4.16,15.083,0l109.44-109.44c7.339-7.339,20.011-7.445,27.584,0.128c7.573,7.552,7.573,19.904,0,27.456    L248.069,163.716c-4.16,4.16-4.16,10.923,0,15.083c2.091,2.069,4.821,3.115,7.552,3.115c2.731,0,5.461-1.045,7.531-3.115    L372.485,69.465C388.357,53.572,388.357,27.737,372.357,11.716z" fill="#ffffff" data-original="#000000" style="" class=""/>
	</g>
</g>
<g xmlns="http://www.w3.org/2000/svg">
	<g>
		<path d="M500.336,139.737c-15.381-15.381-42.219-15.445-57.621,0l-109.12,109.12c-4.16,4.16-4.16,10.923,0,15.083    c4.16,4.16,10.923,4.16,15.083,0l109.12-109.12c7.339-7.339,20.011-7.445,27.584,0.128c7.573,7.552,7.573,19.904,0,27.456    L376.368,291.417c-4.16,4.16-4.16,10.923,0,15.083c2.091,2.069,4.821,3.115,7.552,3.115s5.461-1.045,7.531-3.115l109.013-109.013    C516.336,181.593,516.336,155.759,500.336,139.737z" fill="#ffffff" data-original="#000000" style="" class=""/>
	</g>
</g>
<g xmlns="http://www.w3.org/2000/svg">
	<g>
		<path d="M92.869,376.665c-4.16-4.16-10.923-4.16-15.083,0L3.12,451.332c-4.16,4.16-4.16,10.923,0,15.083    c2.091,2.069,4.821,3.115,7.552,3.115c2.731,0,5.461-1.045,7.531-3.115l74.667-74.667    C97.029,387.588,97.029,380.825,92.869,376.665z" fill="#ffffff" data-original="#000000" style="" class=""/>
	</g>
</g>
<g xmlns="http://www.w3.org/2000/svg">
	<g>
		<path d="M135.536,419.332c-4.16-4.16-10.923-4.16-15.083,0l-74.667,74.667c-4.16,4.16-4.16,10.923,0,15.083    c2.091,2.069,4.821,3.115,7.552,3.115s5.461-1.045,7.531-3.115l74.667-74.667C139.696,430.255,139.696,423.492,135.536,419.332z" fill="#ffffff" data-original="#000000" style="" class=""/>
	</g>
</g>
<g xmlns="http://www.w3.org/2000/svg">
	<g>
		<path d="M424.112,323.887L188.293,89.22c-4.16-4.139-10.901-4.117-15.061,0.021l-42.112,42.069    c-1.984,2.005-3.115,4.715-3.115,7.552s1.131,5.547,3.136,7.531l13.781,13.803l-66.368,66.368    c-22.165,22.144-34.368,51.627-34.368,82.965c0,31.36,12.203,60.821,34.368,82.987l41.152,41.152    c22.869,22.869,52.907,34.304,82.965,34.304c30.037,0,60.096-11.456,82.987-34.325l66.368-66.368l13.781,13.781    c4.117,4.117,10.773,4.16,14.976,0.107l43.243-42.091c2.048-1.984,3.2-4.715,3.221-7.573    C427.269,328.665,426.139,325.913,424.112,323.887z M373.424,358.553l-13.888-13.888c-3.989-4.011-11.072-4.011-15.083,0    l-73.899,73.92c-37.44,37.419-98.325,37.419-135.765,0l-41.152-41.152c-18.133-18.155-28.117-42.24-28.117-67.904    s9.984-49.749,28.117-67.883l73.899-73.92c4.16-4.16,4.16-10.923,0-15.083l-13.781-13.781l27.029-27.029l220.565,219.541    L373.424,358.553z" fill="#ffffff" data-original="#000000" style="" class=""/>
	</g>
</g>
<g xmlns="http://www.w3.org/2000/svg">
</g>
<g xmlns="http://www.w3.org/2000/svg">
</g>
<g xmlns="http://www.w3.org/2000/svg">
</g>
<g xmlns="http://www.w3.org/2000/svg">
</g>
<g xmlns="http://www.w3.org/2000/svg">
</g>
<g xmlns="http://www.w3.org/2000/svg">
</g>
<g xmlns="http://www.w3.org/2000/svg">
</g>
<g xmlns="http://www.w3.org/2000/svg">
</g>
<g xmlns="http://www.w3.org/2000/svg">
</g>
<g xmlns="http://www.w3.org/2000/svg">
</g>
<g xmlns="http://www.w3.org/2000/svg">
</g>
<g xmlns="http://www.w3.org/2000/svg">
</g>
<g xmlns="http://www.w3.org/2000/svg">
</g>
<g xmlns="http://www.w3.org/2000/svg">
</g>
<g xmlns="http://www.w3.org/2000/svg">
</g>
</g></svg>
